<svg width="36" height="36" viewBox="0 0 36 36" fill="none" xmlns="http://www.w3.org/2000/svg">
<g clip-path="url(#clip0_62_9394)">
<path fill-rule="evenodd" clip-rule="evenodd" d="M28.9999 18.2497C28.9999 17.4694 28.928 16.7202 28.7958 16H18.2246V20.2549H24.2658C24.0056 21.6301 23.2147 22.7948 22.0261 23.5751V26.3347H25.6542C27.7764 24.4197 29.001 21.6 29.001 18.2497H28.9999Z" fill="#4285F4"/>
<path fill-rule="evenodd" clip-rule="evenodd" d="M18.2242 28.9997C21.2548 28.9997 23.7959 28.0142 25.6527 26.3344L22.0247 23.5748C21.019 24.2349 19.7342 24.6246 18.2232 24.6246C15.2993 24.6246 12.8249 22.6898 11.942 20.0898H8.19336V22.9396C10.0407 26.5344 13.8358 28.9997 18.2242 28.9997Z" fill="#34A853"/>
<path fill-rule="evenodd" clip-rule="evenodd" d="M11.9435 20.0906C11.7193 19.4305 11.5914 18.7258 11.5914 18.0004C11.5914 17.2751 11.7193 16.5704 11.9435 15.9103V13.0605H8.19385C7.43355 14.5455 7 16.2253 7 18.0004C7 19.7756 7.43355 21.4554 8.19385 22.9403L11.9435 20.0906Z" fill="#FBBC05"/>
<path fill-rule="evenodd" clip-rule="evenodd" d="M18.2242 11.3751C19.8717 11.3751 21.3521 11.9306 22.5153 13.0197L25.7352 9.86425C23.7906 8.09016 21.2495 7 18.2242 7C13.8358 7 10.0407 9.46528 8.19336 13.0601L11.943 15.9098C12.826 13.3098 15.3004 11.3751 18.2242 11.3751Z" fill="#EA4335"/>
</g>
<defs>
<clipPath id="clip0_62_9394">
<rect width="22" height="22" fill="white" transform="translate(7 7)"/>
</clipPath>
</defs>
</svg>
