<svg width="36" height="36" viewBox="0 0 36 36" fill="none" xmlns="http://www.w3.org/2000/svg">
<g clip-path="url(#clip0_62_9377)">
<mask id="mask0_62_9377" style="mask-type:luminance" maskUnits="userSpaceOnUse" x="7" y="7" width="22" height="22">
<path d="M28.8811 7.80273H7.11914V28.1976H28.8811V7.80273Z" fill="white"/>
</mask>
<g mask="url(#mask0_62_9377)">
<path d="M17.9983 7.80273C11.9881 7.80273 7.11914 11.706 7.11914 16.5237C7.11914 19.6224 9.13694 22.3386 12.1672 23.8884L11.1412 27.7737C11.122 27.8313 11.1191 27.8931 11.1329 27.9522C11.1468 28.0114 11.1767 28.0655 11.2195 28.1085C11.2733 28.1632 11.3461 28.1952 11.4228 28.1979C11.4995 28.2006 11.5743 28.1738 11.6317 28.1229L16.0417 25.1025C16.6902 25.1978 17.3447 25.2462 18.0001 25.2474C24.0076 25.2474 28.8829 21.3468 28.8829 16.5237C28.8829 11.7006 24.0058 7.80273 17.9983 7.80273Z" fill="#2B1718"/>
</g>
</g>
<defs>
<clipPath id="clip0_62_9377">
<rect width="36" height="36" fill="white"/>
</clipPath>
</defs>
</svg>
