<svg width="280" height="220" viewBox="0 0 280 220" fill="none" xmlns="http://www.w3.org/2000/svg">
<path d="M127.983 0.984375H0.882812V159.824H127.983V0.984375Z" fill="white"/>
<path d="M127.983 160.113H0.883828C0.722966 160.113 0.59375 159.984 0.59375 159.823V0.98328C0.59375 0.822506 0.722966 0.693359 0.883828 0.693359H127.984C128.145 0.693359 128.274 0.822506 128.274 0.98328V159.823C128.274 159.984 128.145 160.113 127.984 160.113H127.983ZM1.17391 159.533H127.693V1.2732H1.17391V159.532V159.533Z" fill="black"/>
<path d="M112.301 77.1562H16.5625V87.5196H112.301V77.1562Z" fill="white"/>
<path d="M112.303 87.8084H16.5635C16.4027 87.8084 16.2734 87.6793 16.2734 87.5185V77.1552C16.2734 76.9944 16.4027 76.8652 16.5635 76.8652H112.303C112.463 76.8652 112.593 76.9944 112.593 77.1552V87.5185C112.593 87.6793 112.463 87.8084 112.303 87.8084ZM16.8536 87.2286H112.012V77.4451H16.8536V87.2286Z" fill="black"/>
<path d="M112.301 101.42H16.5625V139.612H112.301V101.42Z" fill="white"/>
<path d="M112.303 139.903H16.5635C16.4027 139.903 16.2734 139.773 16.2734 139.613V101.421C16.2734 101.26 16.4027 101.131 16.5635 101.131H112.303C112.463 101.131 112.593 101.26 112.593 101.421V139.613C112.593 139.773 112.463 139.903 112.303 139.903ZM16.8536 139.323H112.012V101.711H16.8536V139.323Z" fill="black"/>
<path d="M64.2321 62.7223C77.2117 62.7223 87.7337 52.2596 87.7337 39.3533C87.7337 26.447 77.2117 15.9844 64.2321 15.9844C51.2525 15.9844 40.7305 26.447 40.7305 39.3533C40.7305 52.2596 51.2525 62.7223 64.2321 62.7223Z" fill="#0082FF"/>
<mask id="mask0_62_9280" style="mask-type:luminance" maskUnits="userSpaceOnUse" x="43" y="18" width="42" height="42">
<path d="M64.2341 59.8236C75.6021 59.8236 84.8178 50.6595 84.8178 39.3551C84.8178 28.0507 75.6021 18.8867 64.2341 18.8867C52.866 18.8867 43.6504 28.0507 43.6504 39.3551C43.6504 50.6595 52.866 59.8236 64.2341 59.8236Z" fill="white"/>
</mask>
<g mask="url(#mask0_62_9280)">
<path d="M77.0992 61.7732H51.3653C51.2862 61.7732 51.2097 61.7403 51.1556 61.6836C51.1016 61.6256 51.0726 61.5479 51.0765 61.4688L52.3568 36.0269C52.7629 27.9473 57.9804 21.6191 64.2329 21.6191C70.4854 21.6191 75.7028 27.9473 76.109 36.0269L77.3893 61.4688C77.3932 61.5479 77.3642 61.6256 77.3101 61.6836C77.2561 61.7416 77.1796 61.7732 77.1005 61.7732H77.0992ZM51.6712 61.1934H76.7946L75.5301 36.0559C75.1398 28.286 70.1769 22.199 64.2342 22.199C58.2916 22.199 53.3286 28.286 52.937 36.0546L51.6725 61.1921L51.6712 61.1934Z" fill="white"/>
<path d="M75.8755 49.2245L64.2328 46.5586L52.5901 49.2245C49.4586 49.9414 46.9639 52.2898 46.0712 55.359L43.5449 68.6308H84.9193L82.393 55.359C81.5003 52.2898 79.0057 49.9428 75.8741 49.2245H75.8755Z" fill="white"/>
<path d="M64.2345 53.7259C61.4616 53.7259 59.2148 51.4816 59.2148 48.7129V39.3906H69.2542V48.7129C69.2542 51.4816 67.0074 53.7259 64.2345 53.7259Z" fill="white"/>
<path d="M72.6389 32.9166C72.2736 32.8269 71.9031 32.8612 71.5603 32.9917C71.2689 28.3727 68.1005 25.2402 64.2319 25.2402C60.3633 25.2402 57.1949 28.3727 56.9035 32.9917C56.5593 32.8612 56.1888 32.8269 55.8249 32.9166C54.7384 33.1854 54.1161 34.4347 54.4352 35.7077C54.7529 36.9807 55.8921 37.7951 56.9773 37.5263C57.1527 37.4828 57.3135 37.4116 57.4625 37.322C58.582 40.7339 61.1913 43.3445 64.2319 43.3445C67.2724 43.3445 69.8831 40.7326 71.0013 37.322C71.1503 37.4116 71.3111 37.4828 71.4865 37.5263C72.573 37.7951 73.7109 36.9807 74.0286 35.7077C74.3464 34.4347 73.724 33.1854 72.6389 32.9166Z" fill="white"/>
<path d="M64.2321 43.6333C61.3247 43.6333 58.569 41.2731 57.2953 37.7268C57.2135 37.7598 57.1305 37.7861 57.0474 37.8072C55.8053 38.1129 54.5105 37.2023 54.1545 35.7764C53.966 35.0253 54.0702 34.2438 54.4393 33.631C54.7452 33.1224 55.2133 32.7679 55.7552 32.6334C56.044 32.5623 56.3446 32.5557 56.6426 32.615C57.0738 28.1515 60.2185 24.9492 64.2321 24.9492C68.2457 24.9492 71.3905 28.1515 71.8216 32.615C72.1196 32.557 72.4216 32.5623 72.709 32.6334C73.2509 32.7679 73.719 33.121 74.0249 33.6297C74.3941 34.2425 74.4982 35.0253 74.311 35.7764C73.955 37.2023 72.6576 38.1116 71.4181 37.8072C71.3351 37.7861 71.252 37.7598 71.1703 37.7268C69.8966 41.2744 67.1408 43.6333 64.2334 43.6333H64.2321ZM57.4627 37.031C57.497 37.031 57.5313 37.0376 57.5643 37.0495C57.6473 37.0798 57.712 37.147 57.7396 37.2313C58.8828 40.7143 61.4922 43.0548 64.2334 43.0548C66.9747 43.0548 69.5854 40.7143 70.7272 37.2313C70.7549 37.147 70.8195 37.0798 70.9026 37.0495C70.9857 37.0192 71.078 37.0271 71.1544 37.0732C71.2863 37.1523 71.4221 37.2102 71.5592 37.2445C72.4888 37.4725 73.4711 36.753 73.7506 35.6368C73.9009 35.0345 73.8205 34.4125 73.5304 33.9302C73.3037 33.5546 72.9648 33.2937 72.5732 33.1975C72.2818 33.1263 71.968 33.1474 71.6673 33.262C71.5816 33.295 71.4854 33.2844 71.4063 33.2344C71.3285 33.1843 71.2797 33.1013 71.2744 33.009C71.0015 28.6747 68.0401 25.5291 64.2348 25.5291C60.4295 25.5291 57.4693 28.6747 57.1964 33.009C57.1911 33.1013 57.141 33.1843 57.0645 33.2344C56.9868 33.2844 56.8905 33.2937 56.8035 33.262C56.5029 33.1487 56.1904 33.125 55.8963 33.1975C55.5047 33.295 55.1645 33.5546 54.9391 33.9302C54.649 34.4125 54.5686 35.0345 54.7189 35.6368C54.9984 36.753 55.9807 37.4725 56.9103 37.2445C57.0487 37.2102 57.1819 37.1536 57.3151 37.0732C57.3612 37.0455 57.4126 37.031 57.4654 37.031H57.4627Z" fill="#0082FF"/>
<path d="M56.7809 34.1488C60.4451 33.4636 64.2662 30.2164 66.5591 27.2922C67.0074 29.8883 69.3201 32.9233 71.7423 33.9894C71.7423 33.9894 72.896 23.651 64.2319 23.9845C55.5665 24.3179 56.7809 34.1488 56.7809 34.1488Z" fill="#0082FF"/>
</g>
<path d="M106.638 110.4H83.2569C83.096 110.4 82.9668 110.271 82.9668 110.11C82.9668 109.949 83.096 109.82 83.2569 109.82H106.638C106.799 109.82 106.929 109.949 106.929 110.11C106.929 110.271 106.799 110.4 106.638 110.4Z" fill="black"/>
<path d="M65.1176 110.4H50.0362C49.8753 110.4 49.7461 110.271 49.7461 110.11C49.7461 109.949 49.8753 109.82 50.0362 109.82H65.1176C65.2785 109.82 65.4077 109.949 65.4077 110.11C65.4077 110.271 65.2785 110.4 65.1176 110.4Z" fill="black"/>
<path d="M44.9764 110.4H27.2842C27.1234 110.4 26.9941 110.271 26.9941 110.11C26.9941 109.949 27.1234 109.82 27.2842 109.82H44.9764C45.1372 109.82 45.2664 109.949 45.2664 110.11C45.2664 110.271 45.1372 110.4 44.9764 110.4Z" fill="black"/>
<path d="M98.5389 117.34H78.0791C77.9183 117.34 77.7891 117.21 77.7891 117.05C77.7891 116.889 77.9183 116.76 78.0791 116.76H98.5389C98.6997 116.76 98.829 116.889 98.829 117.05C98.829 117.21 98.6997 117.34 98.5389 117.34Z" fill="black"/>
<path d="M61.3898 117.34H43.2217C43.0609 117.34 42.9316 117.21 42.9316 117.05C42.9316 116.889 43.0609 116.76 43.2217 116.76H61.3898C61.5507 116.76 61.6799 116.889 61.6799 117.05C61.6799 117.21 61.5507 117.34 61.3898 117.34Z" fill="black"/>
<path d="M38.1602 117.34H22.2217C22.0609 117.34 21.9316 117.21 21.9316 117.05C21.9316 116.889 22.0609 116.76 22.2217 116.76H38.1602C38.3211 116.76 38.4503 116.889 38.4503 117.05C38.4503 117.21 38.3211 117.34 38.1602 117.34Z" fill="black"/>
<path d="M59.4855 124.279H22.2237C22.0628 124.279 21.9336 124.15 21.9336 123.989C21.9336 123.828 22.0628 123.699 22.2237 123.699H59.4855C59.6464 123.699 59.7756 123.828 59.7756 123.989C59.7756 124.15 59.6464 124.279 59.4855 124.279Z" fill="black"/>
<path d="M89.3579 136.381C88.1106 136.381 86.556 136.015 84.7259 134.885C80.1084 132.038 79.7102 126.33 79.6759 125.215C79.6719 125.056 79.7972 124.921 79.958 124.916C80.1084 124.915 80.2521 125.037 80.2574 125.198C80.289 126.262 80.6674 131.7 85.0304 134.391C87.8679 136.141 89.9565 135.946 91.2091 135.473C91.813 135.245 92.3787 134.897 92.8903 134.449C91.9831 133.606 91.4385 132.682 91.1366 132.169C90.4351 130.981 88.7936 128.196 90.0699 126.558C90.6975 125.753 92.0807 125.273 93.4361 125.385C94.4488 125.471 95.228 125.89 95.5748 126.536C96.2169 127.73 96.1695 129.73 95.4561 131.632C95.0487 132.718 94.4633 133.666 93.7499 134.424C94.2193 134.785 94.7744 135.108 95.4284 135.343C96.064 135.569 97.7517 136.172 99.206 135.361C99.711 135.08 100.037 134.7 100.426 134.049C99.7124 133.075 99.2799 131.903 99.0043 131.16C98.6285 130.143 98.2725 129.18 98.7657 128.367C99.1401 127.751 99.9339 127.336 100.89 127.26C101.767 127.189 102.522 127.426 102.918 127.892C103.814 128.947 102.765 130.923 101.55 133.21C101.399 133.496 101.259 133.757 101.126 133.997C101.636 134.601 102.277 135.059 103.08 135.152C104.185 135.275 105.17 134.68 105.799 134.157C105.923 134.054 106.105 134.071 106.207 134.194C106.31 134.316 106.293 134.499 106.171 134.602C105.455 135.199 104.326 135.88 103.014 135.729C102.104 135.625 101.386 135.15 100.815 134.526C100.439 135.123 100.058 135.551 99.4882 135.868C97.8031 136.805 95.9361 136.14 95.2333 135.89C94.487 135.623 93.8594 135.249 93.332 134.831C92.7531 135.352 92.1057 135.755 91.4122 136.016C90.8663 136.222 90.178 136.381 89.3579 136.381ZM93.0392 125.951C92.0002 125.951 90.9823 126.333 90.5274 126.915C89.4924 128.244 91.0496 130.882 91.635 131.875C91.9462 132.401 92.4591 133.271 93.3056 134.051C93.9767 133.346 94.5292 132.454 94.9129 131.43C95.5603 129.705 95.6209 127.848 95.0632 126.812C94.8114 126.343 94.1996 126.034 93.3873 125.965C93.2713 125.956 93.1553 125.951 93.0392 125.951ZM101.179 127.828C101.099 127.828 101.018 127.831 100.936 127.838C100.176 127.898 99.5357 128.216 99.2614 128.668C98.9371 129.203 99.1533 129.889 99.5489 130.958C99.7902 131.611 100.163 132.62 100.743 133.487C100.836 133.318 100.932 133.137 101.037 132.939C102.061 131.014 103.117 129.022 102.476 128.267C102.243 127.992 101.748 127.828 101.18 127.828H101.179Z" fill="#0082FF"/>
<path d="M179.418 218.422V111.951L232.646 113.767L279.709 218.273L179.418 218.422Z" fill="white"/>
<path d="M179.417 218.711C179.256 218.711 179.127 218.582 179.127 218.421V111.951C179.127 111.872 179.159 111.796 179.215 111.742C179.272 111.688 179.352 111.655 179.428 111.661L232.656 113.477C232.766 113.481 232.865 113.547 232.91 113.648L279.973 218.155C280.039 218.302 279.973 218.473 279.828 218.539C279.681 218.603 279.51 218.539 279.444 218.394L232.455 114.053L179.708 112.254V218.424C179.708 218.585 179.579 218.714 179.418 218.714L179.417 218.711Z" fill="black"/>
<path d="M230.691 218.711C230.573 218.711 230.463 218.64 230.419 218.524L201.924 143.16C200.851 140.778 198.936 138.852 196.543 137.756L193.896 136.542C193.751 136.475 193.686 136.304 193.753 136.157C193.82 136.012 193.992 135.948 194.138 136.015L196.786 137.229C199.307 138.383 201.323 140.412 202.461 142.94L230.962 218.321C231.019 218.471 230.944 218.638 230.794 218.695C230.759 218.708 230.725 218.714 230.691 218.714V218.711Z" fill="black"/>
<path d="M251.127 57.0473C253.082 45.9803 234.644 40.4177 202.605 12.4588C200.707 10.8023 195.556 6.2703 187.877 5.15147C185.894 4.86287 178.617 3.80202 172.281 8.24835C166.449 12.3415 164.881 18.6697 163.747 23.2544C161.187 33.598 163.762 42.4156 164.887 45.6574C171.66 65.1744 191.816 72.6069 193.947 73.3567C217.827 81.7486 248.739 70.5577 251.125 57.0487L251.127 57.0473Z" fill="black"/>
<path d="M177.961 51.5931C176.958 51.8659 175.487 52.3416 173.838 53.1877C168.016 56.1752 166.633 60.3632 160.681 69.9372C151.817 84.1961 147.385 91.3255 145.759 92.9886C145.1 93.6633 143.803 94.9798 143.681 96.8472C143.41 101.011 149.083 104.853 154.774 106.805C162.203 109.351 169.157 110.65 171.99 106.714C173.286 104.912 174.517 103.007 175.565 101.056C176.577 99.1718 177.082 98.6842 178.789 99.011C178.513 83.2051 178.236 67.3991 177.961 51.5918V51.5931Z" fill="white"/>
<path d="M165.894 109.516C162.446 109.516 158.346 108.335 154.681 107.079C148.859 105.084 143.112 101.141 143.393 96.8292C143.521 94.8657 144.887 93.4688 145.542 92.798C147.157 91.1454 151.595 84.0068 160.436 69.7849C161.697 67.7567 162.755 65.9658 163.69 64.3844C167.144 58.5412 169.046 55.3217 173.706 52.9299C175.028 52.2512 176.434 51.707 177.886 51.3129C177.973 51.2892 178.064 51.3077 178.136 51.3604C178.207 51.4144 178.251 51.4974 178.252 51.587L179.08 99.0063C179.082 99.0932 179.043 99.1776 178.977 99.2329C178.91 99.2883 178.822 99.3107 178.736 99.2962C177.258 99.0115 176.851 99.279 175.822 101.194C174.845 103.012 173.635 104.927 172.226 106.883C170.841 108.808 168.561 109.516 165.894 109.516ZM177.679 51.9745C176.394 52.3474 175.148 52.8429 173.972 53.4465C169.46 55.7619 167.7 58.7415 164.19 64.6796C163.254 66.2623 162.194 68.0572 160.929 70.0906C152.066 84.3481 147.616 91.5052 145.968 93.192C145.302 93.872 144.085 95.1174 143.972 96.8661C143.71 100.872 149.256 104.607 154.869 106.53C160.688 108.524 168.768 110.695 171.756 106.543C173.148 104.607 174.345 102.715 175.311 100.918C176.241 99.1868 176.822 98.4475 178.495 98.6689L177.679 51.9732V51.9745Z" fill="black"/>
<path d="M175.567 101.055L130.744 61.2594C130.744 61.2594 124.252 52.911 118.569 54.669C112.733 56.4744 122.807 60.4648 123.487 66.4648C123.726 68.5694 123.548 71.4699 126.662 74.0845C126.897 74.1319 127.047 74.3415 127.587 74.4732L127.279 86.4799C127.279 86.4799 146.236 112.005 162.828 112.927C169.623 113.306 175.567 101.054 175.567 101.054V101.055Z" fill="white"/>
<path d="M162.955 113.222C162.91 113.222 162.868 113.222 162.823 113.221C153.378 113.017 141.255 104.185 127.759 87.6788C127.717 87.6274 127.693 87.5615 127.693 87.4956V77.9598C127.693 77.7991 127.823 77.6699 127.983 77.6699C128.144 77.6699 128.274 77.7991 128.274 77.9598V87.3915C141.63 103.709 153.58 112.439 162.835 112.64C162.875 112.64 162.914 112.641 162.952 112.641C169.449 112.641 175.248 101.045 175.307 100.928C175.378 100.785 175.551 100.727 175.696 100.796C175.84 100.868 175.899 101.042 175.828 101.185C175.584 101.679 169.806 113.222 162.955 113.222Z" fill="black"/>
<path d="M128.251 74.7674C128.232 74.7674 128.212 74.7661 128.194 74.7621C127.358 74.5961 126.616 74.2772 125.985 73.8146C123.839 72.2332 123.595 70.0456 123.257 67.016L123.199 66.5007C122.839 63.3313 120.438 60.9461 118.686 59.2052C117.106 57.637 115.86 56.3983 116.894 55.3335C118.376 53.8087 120.698 53.897 124.201 55.6115C124.345 55.6827 124.404 55.8553 124.334 55.999C124.263 56.1426 124.091 56.2032 123.947 56.1321C119.683 54.046 118.118 54.9078 117.311 55.738C116.705 56.3601 117.551 57.2588 119.095 58.7928C120.909 60.5955 123.393 63.0625 123.775 66.4348L123.833 66.9501C124.167 69.9402 124.387 71.9156 126.328 73.3455C126.888 73.7579 127.553 74.0426 128.305 74.1915C128.462 74.2231 128.564 74.3747 128.533 74.5328C128.505 74.6712 128.384 74.7661 128.248 74.7661L128.251 74.7674Z" fill="black"/>
<path d="M159.494 87.355C159.425 87.355 159.356 87.3313 159.3 87.2812L130.553 61.4796C130.546 61.4717 130.536 61.4637 130.53 61.4545C130.502 61.4229 127.7 58.2535 123.934 56.1266C123.795 56.0475 123.746 55.8709 123.825 55.7312C123.904 55.5915 124.081 55.5428 124.221 55.6218C127.947 57.7277 130.747 60.8259 130.954 61.0592L159.689 86.8503C159.808 86.957 159.818 87.1402 159.712 87.2601C159.655 87.3234 159.574 87.3563 159.495 87.3563L159.494 87.355Z" fill="black"/>
<path d="M230.691 125.936L218.524 48.3144C214.026 47.5448 208.746 47.0098 202.845 47.1046C190.418 47.3036 180.253 50.2121 173.26 52.911C172.496 61.9446 171.983 71.5107 171.828 81.5605C171.568 98.2415 172.33 113.717 173.675 127.782L230.693 125.936H230.691Z" fill="#0082FF"/>
<path d="M224.439 105.723C225.549 106.397 226.182 106.792 226.182 106.792C226.182 106.792 213.839 59.7881 218.191 48.1465C218.191 48.1465 235.981 54.3376 246.632 88.7394C257.283 123.141 241.395 134.828 230.124 135.031C228.531 135.06 226.596 134.486 224.439 133.486V105.723Z" fill="white"/>
<path d="M230.778 135.286C229.333 135.286 227.896 135.082 226.493 134.667C226.338 134.622 226.251 134.46 226.296 134.307C226.342 134.153 226.503 134.064 226.656 134.11C236.015 136.875 245.352 129.58 248.202 121.032C251.305 111.215 250.406 99.8826 245.531 87.354C245.527 87.3422 245.523 87.3316 245.52 87.3197C242.36 74.6858 236.839 64.4252 228.644 55.9529C228.139 55.522 227.628 55.0489 227.133 54.5903C225.67 53.2369 224.157 51.836 222.194 50.965C222.161 50.9505 222.132 50.9307 222.107 50.9044L221.249 50.0464C220.8 49.8211 220.396 49.5971 220.003 49.3796C219.369 49.0291 218.77 48.6983 218.082 48.4137C217.934 48.353 217.863 48.183 217.925 48.0341C217.987 47.8865 218.155 47.8167 218.304 47.8773C219.023 48.1738 219.635 48.5138 220.284 48.8723C220.683 49.0937 221.096 49.3216 221.551 49.5483C221.578 49.5628 221.603 49.5813 221.626 49.6023L222.48 50.4563C224.507 51.3682 226.043 52.7902 227.529 54.1646C228.019 54.6193 228.528 55.0884 229.044 55.5312C237.212 63.9745 242.939 74.6107 246.081 87.1603C251 99.8088 251.899 111.265 248.756 121.21C247.253 125.718 244.098 129.789 240.101 132.384C237.148 134.301 233.944 135.285 230.778 135.285V135.286Z" fill="black"/>
<path d="M128.827 117.897L109.633 132.309L133.651 129.983L266.742 76.9198C270.755 75.3199 272.928 71.3177 271.595 67.9797C270.262 64.6416 265.93 63.2342 261.916 64.834L128.825 117.897H128.827Z" fill="white"/>
<path d="M109.632 132.601C109.513 132.601 109.405 132.529 109.362 132.417C109.314 132.295 109.354 132.158 109.458 132.079L128.652 117.668C128.672 117.652 128.695 117.64 128.719 117.631L261.808 64.5672C265.963 62.9094 270.475 64.3946 271.865 67.875C272.541 69.571 272.387 71.4766 271.428 73.2425C270.479 74.9899 268.853 76.3934 266.849 77.192L133.759 130.255C133.734 130.266 133.706 130.273 133.679 130.275L109.661 132.601C109.652 132.601 109.643 132.602 109.633 132.602L109.632 132.601ZM128.97 118.155L110.633 131.924L133.582 129.702L266.634 76.653C268.512 75.9045 270.033 74.5946 270.918 72.9657C271.794 71.354 271.939 69.6224 271.326 68.0898C270.054 64.9059 265.883 63.567 262.023 65.1062L128.97 118.155Z" fill="black"/>
<path d="M109.634 132.6C109.515 132.6 109.407 132.527 109.364 132.415C109.316 132.294 109.356 132.157 109.46 132.078L118.282 125.454C118.41 125.358 118.592 125.385 118.688 125.512C118.785 125.64 118.758 125.822 118.63 125.918L110.633 131.922L120.571 130.96C120.732 130.947 120.873 131.062 120.888 131.221C120.903 131.381 120.786 131.523 120.627 131.538L109.662 132.6C109.652 132.6 109.643 132.601 109.634 132.601V132.6Z" fill="#0082FF"/>
<path d="M120.846 131.225L109.633 132.311L118.594 125.582L120.846 131.225Z" fill="#0082FF"/>
<path d="M255.408 81.4372L250.546 69.2559C250.183 68.3465 250.627 67.3122 251.537 66.9494L252.063 66.7399C252.973 66.3771 254.007 66.8214 254.37 67.7308L259.233 79.9122C259.596 80.8216 259.151 81.8558 258.241 82.2187L257.716 82.4282C256.806 82.791 255.771 82.3466 255.408 81.4372Z" fill="white"/>
<path d="M257.042 82.8473C256.765 82.8473 256.488 82.7906 256.227 82.6786C255.719 82.4611 255.327 82.0592 255.123 81.5466L250.26 69.3646C249.838 68.3064 250.355 67.1032 251.414 66.6815L251.94 66.472C252.453 66.2677 253.013 66.2756 253.521 66.4931C254.029 66.7105 254.42 67.1125 254.625 67.6251L259.487 79.807C259.692 80.3197 259.685 80.8811 259.466 81.3871C259.249 81.8945 258.847 82.2859 258.334 82.4901L257.809 82.6997C257.561 82.7985 257.303 82.8473 257.043 82.8473H257.042ZM250.798 69.1498L255.661 81.3305C255.809 81.6995 256.09 81.9881 256.455 82.1449C256.819 82.3004 257.222 82.307 257.591 82.1594L258.116 81.9498C258.485 81.8022 258.774 81.5215 258.931 81.1565C259.088 80.7915 259.093 80.3882 258.946 80.0205L254.083 67.8386C253.935 67.4709 253.654 67.181 253.289 67.0255C252.924 66.8687 252.52 66.8634 252.152 67.011L251.628 67.2205C250.867 67.5236 250.495 68.3894 250.798 69.1511V69.1498Z" fill="black"/>
<path d="M251.533 82.9841L246.671 70.8028C246.308 69.8933 246.752 68.8591 247.662 68.4963L248.188 68.2868C249.098 67.9239 250.132 68.3683 250.495 69.2777L255.358 81.459C255.721 82.3685 255.276 83.4027 254.366 83.7655L253.841 83.975C252.931 84.3379 251.896 83.8935 251.533 82.9841Z" fill="white"/>
<path d="M253.171 84.3912C252.35 84.3912 251.572 83.8984 251.25 83.0905L246.387 70.9086C245.965 69.8504 246.482 68.6472 247.541 68.2255L248.066 68.016C248.579 67.8104 249.14 67.8183 249.647 68.037C250.153 68.2545 250.546 68.6564 250.75 69.1691L255.613 81.351C256.035 82.4092 255.518 83.6124 254.459 84.0341L253.935 84.2436C253.684 84.3438 253.426 84.3912 253.171 84.3912ZM248.831 68.4495C248.645 68.4495 248.457 68.4851 248.279 68.5563L247.755 68.7658C246.994 69.0689 246.622 69.9347 246.925 70.6951L251.788 82.877C251.936 83.246 252.217 83.5346 252.582 83.6915C252.947 83.8483 253.351 83.8536 253.718 83.706L254.243 83.4964C255.004 83.1933 255.376 82.3275 255.073 81.5671L250.21 69.3865C250.062 69.0175 249.781 68.7289 249.416 68.5721C249.227 68.4917 249.028 68.4508 248.829 68.4508L248.831 68.4495Z" fill="black"/>
<path d="M133.454 129.314C133.396 129.314 133.336 129.297 133.286 129.26C133.156 129.168 133.125 128.986 133.218 128.856C133.637 128.265 133.74 127.582 133.5 126.981C133.26 126.38 132.714 125.955 132.003 125.816C131.846 125.785 131.744 125.632 131.775 125.474C131.806 125.317 131.957 125.213 132.117 125.246C133.024 125.426 133.725 125.979 134.039 126.766C134.353 127.554 134.226 128.437 133.691 129.192C133.634 129.271 133.545 129.314 133.454 129.314Z" fill="black"/>
<path d="M132.044 125.786C131.986 125.786 131.926 125.769 131.876 125.732C131.746 125.64 131.715 125.458 131.808 125.327C132.227 124.737 132.33 124.054 132.09 123.453C131.85 122.852 131.304 122.428 130.593 122.288C130.436 122.258 130.333 122.105 130.365 121.947C130.395 121.79 130.546 121.686 130.707 121.719C131.614 121.898 132.315 122.452 132.629 123.238C132.943 124.025 132.816 124.909 132.281 125.663C132.224 125.742 132.135 125.786 132.044 125.786Z" fill="black"/>
<path d="M130.637 122.259C130.579 122.259 130.52 122.242 130.47 122.205C130.339 122.113 130.309 121.931 130.401 121.8C130.821 121.21 130.923 120.527 130.683 119.926C130.444 119.326 129.898 118.9 129.187 118.76C129.03 118.729 128.927 118.577 128.959 118.419C128.989 118.262 129.142 118.161 129.3 118.191C130.209 118.37 130.909 118.924 131.223 119.712C131.537 120.498 131.41 121.383 130.875 122.136C130.818 122.216 130.728 122.259 130.637 122.259Z" fill="black"/>
<path d="M132.159 125.77C132.044 125.77 131.935 125.701 131.89 125.587C131.831 125.438 131.903 125.269 132.052 125.21L243.98 80.5832C244.128 80.5239 244.298 80.5964 244.357 80.7453C244.416 80.8942 244.344 81.0629 244.195 81.1222L132.267 125.749C132.231 125.763 132.196 125.77 132.16 125.77H132.159Z" fill="black"/>
<path d="M130.745 122.223C130.63 122.223 130.521 122.155 130.476 122.04C130.416 121.891 130.489 121.722 130.638 121.663L242.566 77.0363C242.714 76.977 242.884 77.0495 242.943 77.1984C243.002 77.3473 242.93 77.516 242.781 77.5753L130.853 122.202C130.817 122.217 130.782 122.223 130.746 122.223H130.745Z" fill="black"/>
<path d="M230.125 135.032C218.854 135.235 190.594 105.511 186.139 105.523C186.139 105.523 180.197 109.765 180.197 104.015C178.918 105.038 175.147 105.741 175.275 101.907C173.421 102.674 171.291 102.737 171.035 100.779C170.579 97.2827 180.427 84.9887 193.785 89.9411C207.143 94.8948 226.184 106.793 226.184 106.793L230.126 135.032H230.125Z" fill="white"/>
<path d="M213.365 99.6138C213.317 99.6138 213.27 99.6019 213.225 99.5782C206.907 96.1005 201.357 93.3555 196.729 91.4209C196.581 91.359 196.511 91.189 196.573 91.0414C196.635 90.8938 196.805 90.8239 196.953 90.8859C201.601 92.8283 207.169 95.5826 213.506 99.0709C213.646 99.1486 213.697 99.3252 213.621 99.4649C213.568 99.5611 213.469 99.6151 213.366 99.6151L213.365 99.6138Z" fill="black"/>
<path d="M182.318 107.318C181.929 107.318 181.554 107.247 181.219 107.076C180.448 106.679 180.014 105.828 179.925 104.54C178.983 105.055 177.483 105.378 176.366 104.818C175.758 104.514 175.053 103.835 174.987 102.329C173.658 102.801 172.48 102.82 171.711 102.376C171.166 102.06 170.841 101.536 170.746 100.816C170.62 99.85 171.175 98.3727 172.268 96.7637C172.358 96.6319 172.538 96.5963 172.671 96.6872C172.803 96.7769 172.839 96.9574 172.748 97.0905C171.748 98.5612 171.214 99.9251 171.321 100.741C171.391 101.28 171.614 101.65 172.002 101.873C172.679 102.266 173.862 102.177 175.163 101.638C175.254 101.6 175.359 101.612 175.44 101.667C175.521 101.724 175.568 101.816 175.566 101.915C175.525 103.122 175.883 103.923 176.627 104.298C177.717 104.845 179.323 104.342 180.017 103.788C180.104 103.718 180.224 103.705 180.324 103.753C180.424 103.802 180.489 103.904 180.489 104.014C180.489 105.361 180.824 106.218 181.487 106.558C183.036 107.355 185.944 105.306 185.973 105.285C186.103 105.191 186.284 105.221 186.378 105.352C186.471 105.482 186.441 105.663 186.31 105.757C186.203 105.833 184.102 107.315 182.32 107.315L182.318 107.318Z" fill="black"/>
<path d="M230.011 135.322C226.413 135.322 220.8 132.426 212.862 126.471C212.734 126.374 212.708 126.192 212.804 126.065C212.9 125.937 213.082 125.912 213.21 126.007C221.044 131.883 226.542 134.742 230.008 134.742C230.045 134.742 230.082 134.742 230.119 134.742H230.124C230.283 134.742 230.412 134.869 230.414 135.027C230.417 135.187 230.289 135.32 230.13 135.322C230.091 135.322 230.051 135.322 230.011 135.322Z" fill="black"/>
<path d="M180.134 104.372C180.103 104.372 180.071 104.366 180.039 104.356C179.888 104.303 179.807 104.138 179.86 103.987C180.829 101.198 184.632 98.875 187.747 98.2398C187.903 98.2095 188.057 98.3084 188.09 98.4665C188.122 98.6233 188.022 98.7762 187.863 98.8091C184.971 99.3995 181.298 101.62 180.408 104.178C180.366 104.298 180.254 104.373 180.134 104.373V104.372Z" fill="black"/>
<path d="M175.274 102.134C175.224 102.134 175.173 102.121 175.125 102.093C174.988 102.012 174.943 101.834 175.025 101.695C177.466 97.61 180.042 95.5727 183.919 94.666C184.077 94.6291 184.231 94.7266 184.268 94.8821C184.305 95.0376 184.207 95.1945 184.052 95.2314C180.346 96.0985 177.875 98.0581 175.524 101.994C175.47 102.085 175.373 102.135 175.274 102.135V102.134Z" fill="black"/>
<path d="M192.439 28.0371L200.14 47.5435C200.14 47.5435 195.824 53.2352 186.14 54.5306C176.457 55.8274 184.696 47.732 184.696 47.732L180.02 34.3574L192.439 28.0371Z" fill="white"/>
<path d="M170.388 26.4638C170.672 29.4289 171.501 32.3993 173.222 34.8306C174.942 37.262 177.632 39.1004 180.6 39.3639C183.174 39.5919 185.77 38.626 187.792 37.0169C189.813 35.4092 191.295 33.2005 192.347 30.8429C195.044 31.0182 197.739 29.1574 198.528 26.5758C198.985 25.0866 198.795 23.3313 197.749 22.1756C196.704 21.0212 194.726 20.7141 193.552 21.7394C192.884 22.3232 192.545 23.2232 191.853 23.7794C191.08 24.3987 189.971 24.4765 189.03 24.1708C188.088 23.8637 187.292 23.2219 186.601 22.5129C184.425 20.2806 183.102 17.2377 182.951 14.125C182.966 14.4189 181.617 15.2517 181.38 15.4138C180.785 15.8224 180.155 16.1795 179.498 16.4799C178.205 17.0743 176.812 17.4538 175.396 17.6027C174.677 17.6778 173.954 17.695 173.232 17.6475C172.66 17.6106 171.845 17.3102 171.29 17.4617C170.129 17.778 170.383 19.9854 170.336 20.8802C170.237 22.7396 170.21 24.607 170.388 26.4638Z" fill="white"/>
<path d="M181.344 39.6874C181.086 39.6874 180.83 39.6769 180.574 39.6531C177.704 39.3988 174.866 37.6579 172.985 34.9986C171.395 32.7517 170.424 29.8894 170.1 26.492C169.944 24.8724 169.928 23.0855 170.046 20.8662C170.054 20.7147 170.052 20.5249 170.052 20.3128C170.047 19.1939 170.04 17.5018 171.215 17.1829C171.641 17.067 172.14 17.1645 172.621 17.2594C172.853 17.3042 173.07 17.3477 173.252 17.3595C173.947 17.4056 174.659 17.3898 175.367 17.3147C176.761 17.1684 178.11 16.7994 179.378 16.217C180.023 15.9218 180.642 15.5712 181.215 15.1746C181.249 15.1508 181.306 15.1139 181.379 15.0665C182.317 14.4524 182.598 14.1954 182.663 14.0874C182.68 13.9503 182.795 13.8409 182.937 13.8343C183.085 13.8264 183.232 13.9503 183.24 14.1098C183.387 17.1447 184.688 20.1335 186.808 22.3093C187.618 23.1408 188.352 23.6442 189.118 23.8933C190.052 24.1977 191.029 24.0659 191.67 23.552C191.997 23.2897 192.242 22.9365 192.5 22.5623C192.751 22.1999 193.011 21.8256 193.36 21.5212C194.606 20.434 196.757 20.6488 197.963 21.9811C199.011 23.1382 199.334 24.9317 198.804 26.6607C198 29.2858 195.272 31.2191 192.528 31.1426C191.349 33.7242 189.816 35.7761 187.97 37.2455C185.992 38.819 183.615 39.6874 181.342 39.6874H181.344ZM170.677 26.4367C170.992 29.7326 171.929 32.5 173.458 34.6639C175.243 37.1862 177.923 38.8361 180.626 39.0759C182.978 39.2868 185.523 38.4526 187.61 36.7908C189.426 35.3465 190.93 33.3052 192.081 30.7249C192.13 30.6142 192.243 30.5457 192.365 30.5536C194.92 30.7209 197.502 28.934 198.251 26.4907C198.713 24.9792 198.433 23.3622 197.533 22.3699C196.548 21.2827 194.741 21.0863 193.742 21.9574C193.448 22.2144 193.22 22.5438 192.979 22.8917C192.707 23.2845 192.427 23.689 192.034 24.004C191.241 24.6392 190.056 24.8079 188.939 24.4441C188.079 24.1648 187.271 23.6139 186.392 22.7125C184.336 20.604 183.018 17.7654 182.713 14.8359C182.474 15.027 182.143 15.2576 181.695 15.5502C181.628 15.595 181.574 15.6292 181.542 15.6516C180.94 16.0654 180.292 16.4331 179.617 16.7428C178.292 17.3503 176.881 17.7364 175.424 17.8893C174.684 17.967 173.939 17.9829 173.212 17.9354C172.993 17.9209 172.755 17.8748 172.505 17.826C172.089 17.7443 171.658 17.66 171.364 17.7404C170.619 17.9433 170.626 19.3666 170.63 20.3088C170.63 20.5342 170.631 20.7345 170.623 20.8952C170.506 23.0855 170.523 24.8461 170.675 26.4354L170.677 26.4367Z" fill="black"/>
<path d="M195.188 25.1074C193.802 25.4263 192.667 26.6374 192.438 28.0383L195.188 25.1074Z" fill="white"/>
<path d="M192.438 28.3291C192.422 28.3291 192.406 28.3291 192.39 28.3252C192.232 28.2988 192.125 28.1499 192.15 27.9918C192.399 26.4736 193.62 25.1703 195.122 24.8237C195.278 24.7881 195.435 24.8857 195.47 25.0412C195.506 25.1967 195.408 25.3535 195.253 25.3891C193.975 25.6843 192.935 26.7926 192.724 28.084C192.7 28.2264 192.577 28.3278 192.438 28.3278V28.3291Z" fill="black"/>
</svg>
